# xmcd
#
# Track frame offsets:
# 150
# 1951
# 14918
# 16221
# 30571
# 31992
# 44314
# 46017
# 57607
# 59034
# 69023
# 70427
# 83050
# 84397
# 93166
# 94643
# 105489
# 106485
# 118653
# 120013
# 131707
# 133251
# 143112
# 144197
# 158236
# 159100
# 170087
# 171455
# 183189
# 184901
#
# Disc length: 2590 seconds
#
#
# Revision: 0
# Processed by: cddbd v1.5.1PL0 Copyright (c) Steve Scherf et al.
# Submitted via: FreeRIP 2.942 
#
DISCID=900a1c1e
DTITLE=varios - bailao sertanejo 2
DYEAR=1900
DGENRE=Country
TTITLE0=locucao
TTITLE1=Bailão de Peão
TTITLE2=Locução
TTITLE3=Eu Me Amarrei
TTITLE4=Locução
TTITLE5=Mexe Mexe
TTITLE6=Locução
TTITLE7=Moreninha Linda
TTITLE8=Locução
TTITLE9=Panela Velha
TTITLE10=Locução
TTITLE11=Ela Chora Chora
TTITLE12=Locução
TTITLE13=Baile Na Roça
TTITLE14=Locução
TTITLE15=Pinga ne Mim
TTITLE16=Locução
TTITLE17=No Calor dos Teus Braços
TTITLE18=Locução
TTITLE19=Nascemos para Cantar
TTITLE20=Locução
TTITLE21=Cana Verde
TTITLE22=Locução
TTITLE23=O Cantor e o Peão
TTITLE24=Locução
TTITLE25=Novilha
TTITLE26=Locução
TTITLE27=Rio de Lágrimas
TTITLE28=Locução
TTITLE29=Saudade de Minha Terra
EXTD=Lucilo Carlos Tinós
EXTT0=
EXTT1=
EXTT2=
EXTT3=
EXTT4=
EXTT5=
EXTT6=
EXTT7=
EXTT8=
EXTT9=
EXTT10=
EXTT11=
EXTT12=
EXTT13=
EXTT14=
EXTT15=
EXTT16=
EXTT17=
EXTT18=
EXTT19=
EXTT20=
EXTT21=
EXTT22=
EXTT23=
EXTT24=
EXTT25=
EXTT26=
EXTT27=
EXTT28=
EXTT29=
PLAYORDER=
